<?xml version="1.0" standalone="no"?>
<!DOCTYPE svg PUBLIC "-//W3C//DTD SVG 20010904//EN"
 "http://www.w3.org/TR/2001/REC-SVG-20010904/DTD/svg10.dtd">
<svg version="1.0" xmlns="http://www.w3.org/2000/svg"
 width="174.000000pt" height="56.000000pt" viewBox="0 0 174.000000 56.000000"
 preserveAspectRatio="xMidYMid meet">

<g transform="translate(0.000000,56.000000) scale(0.100000,-0.100000)"
fill="#000000" stroke="none">
<path d="M1096 518 c-9 -27 -14 -345 -7 -357 17 -28 45 -7 53 38 13 75 35 74
89 -6 31 -45 49 -52 68 -29 14 17 5 39 -42 99 l-30 38 38 39 c39 39 42 64 9
77 -10 4 -31 -10 -63 -41 -26 -25 -50 -46 -54 -46 -4 0 -7 40 -7 88 0 87 -8
112 -37 112 -8 0 -15 -6 -17 -12z"/>
<path d="M1352 518 c-19 -19 -17 -341 3 -358 8 -7 22 -10 30 -6 23 8 18 369
-5 374 -9 1 -21 -3 -28 -10z"/>
<path d="M152 485 c-78 -34 -109 -117 -57 -151 14 -9 54 -20 88 -23 72 -8 87
-15 87 -41 0 -28 -43 -52 -100 -58 -42 -4 -51 -1 -71 22 -26 30 -41 33 -59 11
-20 -24 3 -63 47 -82 76 -31 215 4 241 62 36 78 -23 145 -127 145 -49 0 -71 8
-71 26 0 25 57 45 118 42 52 -3 57 -1 60 19 3 18 -4 24 -35 32 -50 14 -81 13
-121 -4z"/>
<path d="M431 462 c-6 -10 -8 -28 -5 -40 5 -17 1 -21 -27 -24 -57 -5 -50 -57
8 -58 21 0 22 -5 25 -92 3 -92 3 -93 28 -93 25 0 25 1 28 93 l3 92 28 0 c16 0
34 7 41 15 18 21 -4 45 -41 45 -23 0 -29 5 -29 21 0 50 -39 78 -59 41z"/>
<path d="M651 387 c-65 -33 -90 -127 -49 -187 68 -100 198 -43 198 87 0 47 -4
59 -29 84 -32 32 -78 38 -120 16z m77 -59 c17 -17 15 -84 -4 -102 -20 -21 -43
-20 -66 1 -24 21 -23 54 3 87 22 28 48 33 67 14z"/>
<path d="M889 373 c-63 -53 -77 -133 -31 -183 34 -38 84 -48 135 -26 70 29 60
77 -12 55 -80 -24 -121 30 -70 95 21 26 62 35 74 16 10 -16 42 -12 49 6 8 22
-1 34 -40 50 -48 20 -68 18 -105 -13z"/>
<path d="M1451 386 c-10 -12 -3 -33 38 -108 l50 -93 -24 -55 c-30 -68 -31 -87
-5 -95 28 -9 35 -2 55 52 10 26 42 97 72 156 56 113 63 152 28 152 -15 0 -30
-19 -56 -69 l-37 -70 -22 45 c-48 94 -74 116 -99 85z"/>
</g>
</svg>
